<svg xmlns="http://www.w3.org/2000/svg" viewBox="0 0 160 220">
  <rect x="6" y="6" width="148" height="208" rx="14" fill="#fffaf0" stroke="#dc2626" stroke-width="4"/>
  <text x="22" y="36" font-family="Georgia,serif" font-size="22" font-weight="bold" fill="#dc2626">J</text>
<text x="22" y="60" font-family="Georgia,serif" font-size="22" font-weight="bold" fill="#2563eb">O</text>
<text x="22" y="84" font-family="Georgia,serif" font-size="22" font-weight="bold" fill="#dc2626">K</text>
<text x="22" y="108" font-family="Georgia,serif" font-size="22" font-weight="bold" fill="#2563eb">E</text>
<text x="22" y="132" font-family="Georgia,serif" font-size="22" font-weight="bold" fill="#dc2626">R</text>

  <g transform="translate(82 112)">
    <circle cx="0" cy="-7" r="28" fill="#fff7ed" stroke="#111" stroke-width="4"/>

    <path d="M-30 -34 Q-46 -68 -16 -51 L-5 -34 Z" fill="#dc2626" stroke="#111" stroke-width="4" stroke-linejoin="round"/>
    <path d="M-16 -51 Q0 -84 16 -51 L0 -32 Z" fill="#facc15" stroke="#111" stroke-width="4" stroke-linejoin="round"/>
    <path d="M16 -51 Q46 -68 30 -34 L5 -34 Z" fill="#2563eb" stroke="#111" stroke-width="4" stroke-linejoin="round"/>

    <circle cx="-39" cy="-68" r="6" fill="#facc15" stroke="#111" stroke-width="4"/>
    <circle cx="0" cy="-83" r="6" fill="#facc15" stroke="#111" stroke-width="4"/>
    <circle cx="39" cy="-68" r="6" fill="#facc15" stroke="#111" stroke-width="4"/>

    <circle cx="-10" cy="-10" r="4" fill="#111"/>
    <circle cx="10" cy="-10" r="4" fill="#111"/>
    <path d="M-12 5 Q0 17 12 5" fill="none" stroke="#111" stroke-width="4" stroke-linecap="round"/>

    <path d="M-44 42 L-18 16 L-4 45 Z" fill="#dc2626" stroke="#111" stroke-width="4" stroke-linejoin="round"/>
    <path d="M-12 20 L0 55 L12 20 Z" fill="#111111" stroke="#111" stroke-width="4" stroke-linejoin="round"/>
    <path d="M4 45 L18 16 L44 42 Z" fill="#2563eb" stroke="#111" stroke-width="4" stroke-linejoin="round"/>

    <circle cx="-44" cy="42" r="6" fill="#facc15" stroke="#111" stroke-width="4"/>
    <circle cx="0" cy="55" r="6" fill="#facc15" stroke="#111" stroke-width="4"/>
    <circle cx="44" cy="42" r="6" fill="#facc15" stroke="#111" stroke-width="4"/>
  </g>

  
    <g transform="translate(138 188) rotate(180)">
      <text x="0" y="0" font-family="Georgia,serif" font-size="22" font-weight="bold" fill="#dc2626">J</text>
<text x="0" y="24" font-family="Georgia,serif" font-size="22" font-weight="bold" fill="#2563eb">O</text>
<text x="0" y="48" font-family="Georgia,serif" font-size="22" font-weight="bold" fill="#dc2626">K</text>
<text x="0" y="72" font-family="Georgia,serif" font-size="22" font-weight="bold" fill="#2563eb">E</text>
<text x="0" y="96" font-family="Georgia,serif" font-size="22" font-weight="bold" fill="#dc2626">R</text>
    </g>
</svg>
