<svg xmlns="http://www.w3.org/2000/svg" viewBox="0 0 160 220">
  <rect x="6" y="6" width="148" height="208" rx="14" fill="#fffaf0" stroke="#dc2626" stroke-width="4"/>
  <text x="20" y="34" font-family="Georgia, serif" font-size="22" font-weight="bold" fill="#dc2626">J</text>
  <text x="20" y="58" font-family="Georgia, serif" font-size="22" font-weight="bold" fill="#2563eb">O</text>
  <text x="20" y="82" font-family="Georgia, serif" font-size="22" font-weight="bold" fill="#dc2626">K</text>
  <text x="20" y="106" font-family="Georgia, serif" font-size="22" font-weight="bold" fill="#2563eb">E</text>
  <text x="20" y="130" font-family="Georgia, serif" font-size="22" font-weight="bold" fill="#dc2626">R</text>
  <g transform="translate(80 112)">
    <circle cx="0" cy="-10" r="30" fill="#fff7ed" stroke="#111" stroke-width="3"/>
    <path d="M-30 -37 Q-46 -70 -15 -52 Q-5 -76 4 -52 Q36 -70 30 -37" fill="#facc15" stroke="#111" stroke-width="3"/>
    <path d="M-30 -37 Q-46 -70 -15 -52" fill="#dc2626" stroke="#111" stroke-width="3"/>
    <path d="M4 -52 Q36 -70 30 -37" fill="#2563eb" stroke="#111" stroke-width="3"/>
    <circle cx="-34" cy="-70" r="6" fill="#facc15" stroke="#111" stroke-width="2"/>
    <circle cx="4" cy="-78" r="6" fill="#facc15" stroke="#111" stroke-width="2"/>
    <circle cx="36" cy="-70" r="6" fill="#facc15" stroke="#111" stroke-width="2"/>
    <circle cx="-11" cy="-14" r="3" fill="#111"/>
    <circle cx="11" cy="-14" r="3" fill="#111"/>
    <path d="M-11 2 Q0 12 11 2" fill="none" stroke="#111" stroke-width="3" stroke-linecap="round"/>
    <path d="M-44 35 L-18 8 L0 40 L18 8 L44 35 Z" fill="#facc15" stroke="#111" stroke-width="3"/>
    <path d="M-44 35 L-18 8 L-7 35 Z" fill="#dc2626"/>
    <path d="M18 8 L44 35 L22 35 Z" fill="#2563eb"/>
    <path d="M-10 36 L0 18 L12 36 Z" fill="#111"/>
  </g>
  <g transform="translate(135 190) rotate(180)">
    <text x="0" y="0" font-family="Georgia, serif" font-size="22" font-weight="bold" fill="#dc2626">J</text>
    <text x="0" y="24" font-family="Georgia, serif" font-size="22" font-weight="bold" fill="#2563eb">O</text>
    <text x="0" y="48" font-family="Georgia, serif" font-size="22" font-weight="bold" fill="#dc2626">K</text>
  </g>
</svg>